<svg style="position: absolute; width: 0; height: 0; overflow: hidden;" version="1.1" xmlns="http://www.w3.org/2000/svg" xmlns:xlink="http://www.w3.org/1999/xlink">
<defs>
<symbol id="icon-logo" viewBox="0 0 239 32">
<title>logo</title>
<path d="M15.55 0c-8.898 0-15.55 7.146-15.55 16s6.652 16 15.55 16c8.899 0 15.551-7.146 15.551-16s-6.652-16-15.551-16zM15.55 27.235c-6.112 0-10.427-4.943-10.427-11.235s4.314-11.237 10.427-11.237c6.113 0 10.427 4.945 10.427 11.237s-4.315 11.235-10.427 11.235z"></path>
<path d="M45.525 5.033h3.416v16.181c0 3.774-1.708 6.022-5.079 6.022-3.101 0-5.079-2.382-5.079-5.348h-5.034c0 5.753 4.314 10.112 10.112 10.112 6.382 0 10.112-4.584 10.112-10.921v-20.81h-8.449v4.764z"></path>
<path d="M101.145 31.73h5.034v-13.484h7.686v-4.764h-7.686v-8.449h14.966v-4.765h-20z"></path>
<path d="M143.841 9.258c0-5.753-4.045-8.989-9.034-8.989h-9.213v31.461h5.034v-13.483h0.719l6.742 13.484h5.753l-7.147-13.663c3.865-0.764 7.147-3.774 7.147-8.809zM134.852 13.482h-4.225v-8.449h4.225c2.697 0 4.045 1.798 4.045 4.225s-1.348 4.224-4.045 4.224z"></path>
<path d="M146.894 5.033h4.764v21.933h-4.764v4.764h14.562v-4.764h-4.765v-21.933h4.765v-4.765h-14.562z"></path>
<path d="M174.938 0.269h-9.214v31.461h9.214c8.989 0 15.506-6.023 15.506-15.73 0-9.708-6.517-15.732-15.506-15.732zM175.072 26.967h-4.314v-21.933h4.314c5.708 0 10.248 3.91 10.248 10.967s-4.54 10.966-10.248 10.966z"></path>
<path d="M199.564 18.247h7.147v-4.764h-7.147v-8.449h14.697v-4.765h-19.73v31.462h20v-4.764h-14.966z"></path>
<path d="M223.923 26.967v-26.698h-5.034v31.462h20v-4.764z"></path>
<path d="M83.651 14.371v-3.271h-3.378v3.271h-3.829c-1.126 0-2.023-0.288-2.663-0.857-0.636-0.565-0.948-1.328-0.948-2.327v-0.186c0-0.932 0.324-1.644 0.992-2.177 0.687-0.545 1.6-0.826 2.714-0.826h4.156v-3.196h-4.342c-1.067 0-2.035 0.154-2.876 0.454-0.849 0.308-1.569 0.727-2.137 1.256-0.573 0.529-1.015 1.173-1.316 1.916-0.296 0.735-0.446 1.537-0.446 2.386v0.371c0 1.264 0.387 2.351 1.146 3.236 0.608 0.707 1.343 1.229 2.189 1.553-0.849 0.336-1.58 0.865-2.189 1.572-0.759 0.885-1.146 1.972-1.146 3.236v0.371c0 0.849 0.15 1.652 0.446 2.386 0.296 0.739 0.739 1.391 1.312 1.928 0.573 0.541 1.292 0.968 2.141 1.276 0.842 0.3 1.81 0.454 2.876 0.454h7.298v-9.632h2.991v-3.196h-2.991zM72.833 20.783c0-1.004 0.312-1.77 0.948-2.343 0.64-0.581 1.537-0.873 2.663-0.873h3.829v6.432h-3.734c-1.114 0-2.027-0.277-2.714-0.822-0.668-0.533-0.992-1.256-0.992-2.209v-0.186z"></path>
</symbol>
<symbol id="icon-icon" viewBox="0 0 18 32">
<title>icon</title>
<path d="M0 9.143h18.286v-9.143h-18.286z"></path>
<path d="M18.286 22.857c0 5.048-4.095 9.143-9.143 9.143s-9.143-4.095-9.143-9.143 4.095-9.143 9.143-9.143c5.048 0 9.143 4.095 9.143 9.143z"></path>
</symbol>
<symbol id="icon-arrow" viewBox="0 0 41 32">
<title>arrow</title>
<path d="M1.568 21l9.818-9.818v8.136h17.091c2.030 0 3.754-0.712 5.17-2.136s2.125-3.144 2.125-5.159c0-2.015-0.708-3.735-2.125-5.159s-3.14-2.136-5.17-2.136h-0.545v-3.364h0.545c2.955 0 5.47 1.042 7.545 3.125s3.114 4.595 3.114 7.534c0 2.939-1.038 5.451-3.114 7.534s-4.591 3.125-7.545 3.125h-17.091v8.136l-9.818-9.818z"></path>
</symbol>
<symbol id="icon-facebook" viewBox="0 0 32 32">
<title>facebook</title>
<path d="M19 6h5v-6h-5c-3.86 0-7 3.14-7 7v3h-4v6h4v16h6v-16h5l1-6h-6v-3c0-0.542 0.458-1 1-1z"></path>
</symbol>
<symbol id="icon-instagram" viewBox="0 0 32 32">
<title>instagram</title>
<path d="M29 0h-26c-1.65 0-3 1.35-3 3v26c0 1.65 1.35 3 3 3h26c1.65 0 3-1.35 3-3v-26c0-1.65-1.35-3-3-3zM22 5c0-0.55 0.45-1 1-1h4c0.55 0 1 0.45 1 1v4c0 0.55-0.45 1-1 1h-4c-0.55 0-1-0.45-1-1v-4zM16 10c3.313 0 6 2.688 6 6s-2.688 6-6 6c-3.313 0-6-2.688-6-6s2.688-6 6-6zM28 27v0c0 0.55-0.45 1-1 1h-22c-0.55 0-1-0.45-1-1v0-13h2.2c-0.131 0.644-0.2 1.313-0.2 2 0 5.525 4.475 10 10 10s10-4.475 10-10c0-0.688-0.069-1.356-0.2-2h2.2v13z"></path>
</symbol>
<symbol id="icon-twitter" viewBox="0 0 32 32">
<title>twitter</title>
<path d="M32 7.075c-1.175 0.525-2.444 0.875-3.769 1.031 1.356-0.813 2.394-2.1 2.887-3.631-1.269 0.75-2.675 1.3-4.169 1.594-1.2-1.275-2.906-2.069-4.794-2.069-3.625 0-6.563 2.938-6.563 6.563 0 0.512 0.056 1.012 0.169 1.494-5.456-0.275-10.294-2.888-13.531-6.862-0.563 0.969-0.887 2.1-0.887 3.3 0 2.275 1.156 4.287 2.919 5.463-1.075-0.031-2.087-0.331-2.975-0.819 0 0.025 0 0.056 0 0.081 0 3.181 2.263 5.838 5.269 6.437-0.55 0.15-1.131 0.231-1.731 0.231-0.425 0-0.831-0.044-1.237-0.119 0.838 2.606 3.263 4.506 6.131 4.563-2.25 1.762-5.075 2.813-8.156 2.813-0.531 0-1.050-0.031-1.569-0.094 2.913 1.869 6.362 2.95 10.069 2.95 12.075 0 18.681-10.006 18.681-18.681 0-0.287-0.006-0.569-0.019-0.85 1.281-0.919 2.394-2.075 3.275-3.394z"></path>
</symbol>
<symbol id="icon-youtube" viewBox="0 0 32 32">
<title>youtube</title>
<path d="M31.681 9.6c0 0-0.313-2.206-1.275-3.175-1.219-1.275-2.581-1.281-3.206-1.356-4.475-0.325-11.194-0.325-11.194-0.325h-0.012c0 0-6.719 0-11.194 0.325-0.625 0.075-1.987 0.081-3.206 1.356-0.963 0.969-1.269 3.175-1.269 3.175s-0.319 2.588-0.319 5.181v2.425c0 2.587 0.319 5.181 0.319 5.181s0.313 2.206 1.269 3.175c1.219 1.275 2.819 1.231 3.531 1.369 2.563 0.244 10.881 0.319 10.881 0.319s6.725-0.012 11.2-0.331c0.625-0.075 1.988-0.081 3.206-1.356 0.962-0.969 1.275-3.175 1.275-3.175s0.319-2.587 0.319-5.181v-2.425c-0.006-2.588-0.325-5.181-0.325-5.181zM12.694 20.15v-8.994l8.644 4.513-8.644 4.481z"></path>
</symbol>
<symbol id="icon-soundcloud" viewBox="0 0 32 32">
<title>soundcloud</title>
<path d="M27.874 16.069c-0.565 0-1.105 0.11-1.596 0.308-0.328-3.574-3.447-6.377-7.25-6.377-0.931 0-1.834 0.176-2.635 0.474-0.311 0.116-0.393 0.235-0.393 0.466v12.585c0 0.243 0.195 0.445 0.441 0.469 0.011 0.001 11.36 0.007 11.434 0.007 2.278 0 4.125-1.776 4.125-3.965s-1.848-3.966-4.126-3.966zM12.5 24h1l0.5-7.007-0.5-6.993h-1l-0.5 6.993zM9.5 24h-1l-0.5-5.086 0.5-4.914h1l0.5 5zM4.5 24h1l0.5-4-0.5-4h-1l-0.5 4zM0.5 22h1l0.5-2-0.5-2h-1l-0.5 2z"></path>
</symbol>
</defs>
</svg>
