<?xml version="1.0" encoding="utf-8"?>
<!-- Generator: Adobe Illustrator 21.0.0, SVG Export Plug-In . SVG Version: 6.00 Build 0)  -->
<svg version="1.1" id="Layer_1" xmlns="http://www.w3.org/2000/svg" xmlns:xlink="http://www.w3.org/1999/xlink" x="0px" y="0px"
	 viewBox="0 0 1000 133.9534" style="enable-background:new 0 0 1000 133.9534;" xml:space="preserve">
<g>
	<title>facebook</title>
	<g>
		<path d="M65.0946,0C27.8452,0,0,29.9142,0,66.9784c0,37.0607,27.8452,66.9751,65.0946,66.9751
			c37.251,0,65.0978-29.9143,65.0978-66.9751C130.1925,29.9142,102.3456,0,65.0946,0z M65.0946,114.0089
			c-25.586,0-43.6467-20.6937-43.6467-47.0305c0-26.3385,18.0607-47.0372,43.6467-47.0372
			c25.5876,0,43.6483,20.6987,43.6483,47.0372C108.7429,93.3153,90.6823,114.0089,65.0946,114.0089z"/>
		<path d="M190.5715,21.0702h14.298v67.7325c0,15.7981-7.1481,25.2073-21.2594,25.2073c-12.9798,0-21.2594-9.9714-21.2594-22.3873
			H141.28c0,24.0826,18.0607,42.3302,42.3302,42.3302c26.7172,0,42.3302-19.1903,42.3302-45.7173V1.1257h-35.3688V21.0702z"/>
		<polygon points="423.3994,132.8247 444.4702,132.8247 444.4702,76.3817 476.6437,76.3817 476.6437,56.4389 444.4702,56.4389 
			444.4702,21.07 507.1203,21.07 507.1203,1.1255 423.3994,1.1255 		"/>
		<path d="M602.124,38.7554c0-24.0809-16.9328-37.6298-37.8167-37.6298h-38.5676v131.6991h21.0708V76.3819h3.0101l28.2206,56.4429
			h24.0826l-29.916-57.1955C588.3883,72.4323,602.124,59.8295,602.124,38.7554z M564.4958,56.4373h-17.6852V21.0702h17.6852
			c11.288,0,16.9328,7.5285,16.9328,17.6852C581.4286,48.9137,575.7838,56.4373,564.4958,56.4373z"/>
		<polygon points="614.9048,21.07 634.8459,21.07 634.8459,112.8835 614.9048,112.8835 614.9048,132.8247 675.8629,132.8247 
			675.8629,112.8835 655.9184,112.8835 655.9184,21.07 675.8629,21.07 675.8629,1.1255 614.9048,1.1255 		"/>
		<path d="M732.2969,1.1257h-38.5692v131.6991h38.5692c37.6281,0,64.9077-25.2105,64.9077-65.8454
			C797.2046,26.3395,769.925,1.1257,732.2969,1.1257z M732.8609,112.8836h-18.0607V21.0702h18.0607
			c23.894,0,42.8975,16.3687,42.8975,45.9092C775.7584,96.5149,756.7549,112.8836,732.8609,112.8836z"/>
		<polygon points="835.3849,76.3817 865.3008,76.3817 865.3008,56.4389 835.3849,56.4389 835.3849,21.07 896.9053,21.07 
			896.9053,1.1255 814.3141,1.1255 814.3141,132.8247 898.035,132.8247 898.035,112.8835 835.3849,112.8835 		"/>
		<polygon points="937.3499,112.8835 937.3499,1.1255 916.2791,1.1255 916.2791,132.8247 1000,132.8247 1000,112.8835 		"/>
		<path d="M350.1649,60.156V46.4616H336.024V60.156h-16.0264c-4.7136,0-8.468-1.2074-11.1473-3.5891
			c-2.6628-2.3651-3.9693-5.5571-3.9693-9.7415v-0.7774c0-3.9032,1.3561-6.8802,4.1512-9.1131
			c2.8779-2.2824,6.6984-3.4566,11.3624-3.4566h17.3992V20.0983h-18.1765c-4.4656,0-8.5177,0.645-12.0405,1.902
			c-3.5558,1.29-6.5659,3.0431-8.9476,5.2594c-2.3982,2.2162-4.2505,4.9121-5.5075,8.0214
			c-1.2404,3.0763-1.8689,6.4337-1.8689,9.9897v1.5547c0,5.2924,1.6209,9.8407,4.7964,13.5455
			c2.547,2.9605,5.6233,5.1436,9.1626,6.4999c-3.5558,1.4058-6.6156,3.6221-9.1626,6.5825
			c-3.1755,3.7047-4.7964,8.253-4.7964,13.5455v1.5547c0,3.5559,0.6285,6.9133,1.8689,9.9896
			c1.2404,3.0928,3.0928,5.8218,5.491,8.0711c2.3982,2.2659,5.4083,4.0521,8.9641,5.3422c3.5229,1.2569,7.575,1.9019,12.0405,1.9019
			h30.5476V73.5361h12.5201V60.156H350.1649z M304.8809,86.9989c0-4.2009,1.3065-7.4095,3.9693-9.8077
			c2.6793-2.4313,6.4337-3.6552,11.1473-3.6552h16.0264v26.9257h-15.6295c-4.6639,0-8.4845-1.1578-11.3624-3.4402
			c-2.7951-2.2327-4.1512-5.2594-4.1512-9.2454V86.9989z"/>
	</g>
</g>
</svg>
